<svg width="64" height="67" viewBox="0 0 64 67" fill="none" xmlns="http://www.w3.org/2000/svg">
<g filter="url(#filter0_d_704_7763)">
<path d="M56.4647 34.9356L56.5796 34.9931C59.2515 36.4871 60.2858 39.8485 58.878 42.5491C53.9939 51.8863 44.1683 58.2644 32.8774 58.1782C17.1334 58.0633 4.2336 45.2497 4.00376 29.5057C3.74519 13.2445 16.8461 0 33.0785 0C42.2434 0 50.4314 4.25204 55.7464 10.8887L45.3462 16.5197C42.0135 13.2732 37.388 11.3196 32.3315 11.5207C23.0517 11.8942 15.5819 19.5651 15.467 28.8736C15.3521 38.6993 23.2816 46.6862 33.0498 46.6862C39.83 46.6862 45.7197 42.8651 48.6501 37.234C50.1441 34.4185 53.6779 33.3842 56.4647 34.9356Z" fill="#5669FF"/>
<path d="M58.9643 15.83C60.2571 18.3583 59.3378 21.4611 56.8383 22.8401L50.4602 26.3739L34.6587 35.1366C32.188 36.5156 29.0851 35.8261 27.4188 33.5277L27.3613 33.4415C25.379 30.7122 26.2408 26.8336 29.2288 25.2247L45.375 16.4908L55.7753 10.8597C56.9819 12.4112 58.0449 14.0775 58.9643 15.83Z" fill="#00F8FF"/>
</g>
<defs>
<filter id="filter0_d_704_7763" x="0" y="0" width="63.5479" height="66.1791" filterUnits="userSpaceOnUse" color-interpolation-filters="sRGB">
<feFlood flood-opacity="0" result="BackgroundImageFix"/>
<feColorMatrix in="SourceAlpha" type="matrix" values="0 0 0 0 0 0 0 0 0 0 0 0 0 0 0 0 0 0 127 0" result="hardAlpha"/>
<feOffset dy="4"/>
<feGaussianBlur stdDeviation="2"/>
<feComposite in2="hardAlpha" operator="out"/>
<feColorMatrix type="matrix" values="0 0 0 0 0 0 0 0 0 0 0 0 0 0 0 0 0 0 0.25 0"/>
<feBlend mode="normal" in2="BackgroundImageFix" result="effect1_dropShadow_704_7763"/>
<feBlend mode="normal" in="SourceGraphic" in2="effect1_dropShadow_704_7763" result="shape"/>
</filter>
</defs>
</svg>
